<svg id="svg" xmlns="http://www.w3.org/2000/svg" xmlns:xlink="http://www.w3.org/1999/xlink" width="400" height="400" viewBox="0, 0, 400,400"><g id="svgg"><path id="path0" d="M141.602 88.427 L 117.969 99.433 117.969 107.138 C 117.969 113.146,118.205 114.844,119.040 114.844 C 119.630 114.844,127.272 113.262,136.024 111.328 C 144.775 109.395,152.379 107.813,152.921 107.813 C 153.709 107.813,153.906 128.695,153.906 212.047 L 153.906 316.281 157.617 317.497 C 173.131 322.581,202.287 325.405,219.690 323.509 C 262.810 318.811,283.235 292.749,283.113 242.578 C 282.981 188.659,257.562 163.090,210.742 169.783 L 206.250 170.425 206.250 180.825 L 206.250 191.225 216.602 191.596 C 245.436 192.630,255.481 204.886,256.782 240.625 C 258.082 276.329,248.441 294.489,225.000 300.493 C 215.737 302.866,196.236 302.058,184.766 298.827 L 180.859 297.726 181.127 187.535 L 181.395 77.344 173.315 77.382 L 165.234 77.420 141.602 88.427 " stroke="none" fill="#ffffff" fill-rule="evenodd"></path></g></svg>